<svg width="256" height="256" viewBox="0 0 256 256" fill="none" xmlns="http://www.w3.org/2000/svg">
<path d="M131.072 84.352H112.779V120.405H141.547V135.499H112.779V171.552H131.968C136.896 171.552 172.437 172.107 172.384 129.6C172.331 87.104 137.909 84.352 131.072 84.352ZM128 0C57.312 0 0 57.312 0 128C0 198.688 57.312 256 128 256C198.688 256 256 198.688 256 128C256 57.312 198.688 0 128 0ZM133.035 197.131H86.6773V135.499H70.336V120.405H86.6773V58.784H126.464C135.872 58.784 198.219 56.832 198.219 129.12C198.208 202.592 133.035 197.131 133.035 197.131Z" fill="#D7A800"/>
</svg>
