<svg width="86" height="35" viewBox="0 0 86 35" fill="none" xmlns="http://www.w3.org/2000/svg">
<path fill-rule="evenodd" clip-rule="evenodd" d="M65.4635 19.1599C63.3174 17.6665 61.075 16.5306 58.8793 16.5306C54.7633 16.5306 52.2814 18.4519 50.1416 20.1826C50.0891 20.225 50.0369 20.2673 49.9849 20.3094C47.8942 22.0018 46.1821 23.3878 43.42 23.3878C42.2452 23.3878 41.1271 22.6844 39.8889 21.2777C38.8898 20.1428 37.9404 18.703 36.9055 17.1335C36.6591 16.7599 36.408 16.379 36.1502 15.9932C34.8399 14.0321 33.3765 11.9763 31.6033 10.4137C29.8097 8.83322 27.6502 7.71429 24.9685 7.71429C20.0752 7.71429 18.0119 8.60806 16.4541 9.58172C16.2211 9.72734 16.0197 9.85981 15.8346 9.98151C15.3996 10.2676 15.055 10.4942 14.6035 10.6924C14.0197 10.9486 13.2583 11.1429 12.0027 11.1429C11.0201 11.1429 10.3181 10.7103 9.6779 9.9101C9.01683 9.08373 8.502 7.96553 7.91319 6.68666C7.89624 6.64985 7.87923 6.61291 7.86216 6.57584C7.28065 5.31332 6.61988 3.89687 5.67997 2.80979C4.69846 1.67461 3.3779 0.857147 1.53021 0.857147C0.979377 0.857147 0.532837 1.29573 0.532837 1.83674C0.532837 2.37775 0.979377 2.81633 1.53021 2.81633C2.67465 2.81633 3.47351 3.28458 4.15949 4.07797C4.88707 4.91947 5.44185 6.07445 6.04472 7.38335C6.07615 7.45157 6.10773 7.52029 6.1395 7.58943C6.68823 8.78332 7.2939 10.1011 8.10939 11.1205C9.01203 12.2489 10.2424 13.102 12.0027 13.102C13.4898 13.102 14.5362 12.8678 15.4172 12.4811C16.0354 12.2098 16.5824 11.8499 17.0671 11.5311C17.2263 11.4263 17.3789 11.3259 17.525 11.2346C18.71 10.494 20.3867 9.67347 24.9685 9.67347C27.0244 9.67347 28.7298 10.5137 30.2711 11.872C31.8329 13.2482 33.1746 15.1107 34.4824 17.0681C34.7202 17.424 34.9578 17.7845 35.1957 18.1456C36.2353 19.7235 37.2812 21.3109 38.3799 22.5591C39.7286 24.0911 41.3533 25.3469 43.42 25.3469C46.9111 25.3469 49.1316 23.5442 51.134 21.9185C51.2263 21.8435 51.3182 21.769 51.4097 21.695C53.5087 19.9971 55.515 18.4898 58.8793 18.4898C60.4238 18.4898 62.2331 19.3131 64.3103 20.7585C66.3049 22.1464 68.3902 23.9929 70.5494 25.9048L70.741 26.0746C72.9441 28.025 75.2214 30.0294 77.4588 31.5417C79.6779 33.0415 82.0065 34.1633 84.3124 34.1633C84.8632 34.1633 85.3097 33.7247 85.3097 33.1837C85.3097 32.6427 84.8632 32.2041 84.3124 32.2041C82.6287 32.2041 80.7185 31.3666 78.5896 29.9277C76.4791 28.5012 74.2994 26.5873 72.0766 24.6193C71.9984 24.5501 71.9202 24.4808 71.8419 24.4115C69.7186 22.5311 67.556 20.616 65.4635 19.1599Z" fill="#385D9A"/>
</svg>
