<svg width="145" height="104" viewBox="0 0 145 104" fill="none" xmlns="http://www.w3.org/2000/svg">
<circle cx="77.3613" cy="52" r="52" fill="#FFF3F3"/>
<rect x="0.400391" y="10.043" width="8.32" height="8.32" transform="rotate(-45 0.400391 10.043)" fill="#979797"/>
<rect x="5.59961" y="68.283" width="4.16" height="4.16" transform="rotate(-45 5.59961 68.283)" fill="#979797"/>
<path fill-rule="evenodd" clip-rule="evenodd" d="M141.067 45.9187C141.104 44.5254 140.537 43.136 139.293 42.2974C138.812 41.9727 138.241 41.8545 137.68 41.7562C139.962 41.6779 140.754 39.2892 141.072 37.4399C140.962 39.0985 141.829 40.8899 143.601 41.0552C141.837 42.093 141.231 43.9973 141.067 45.9187Z" fill="white" stroke="#979797" stroke-width="1.31217" stroke-miterlimit="1.5" stroke-linecap="round" stroke-linejoin="round"/>
<path d="M68.4865 39.7974C68.2027 39.7974 67.9185 39.9056 67.7022 40.1224L65.4835 42.3411C65.0498 42.7748 65.0498 43.4771 65.4835 43.9098L73.5738 52.0001L65.4835 60.0904C65.0498 60.5242 65.0498 61.2265 65.4835 61.6591L67.7022 63.8778C68.1359 64.3115 68.8382 64.3115 69.2708 63.8778L77.3612 55.7874L85.4515 63.8778C85.8842 64.3115 86.5875 64.3115 87.0202 63.8778L89.2388 61.6591C89.6726 61.2253 89.6726 60.5231 89.2388 60.0904L81.1485 52.0001L89.2388 43.9098C89.6726 43.4771 89.6726 42.7737 89.2388 42.3411L87.0202 40.1224C86.5864 39.6887 85.8842 39.6887 85.4515 40.1224L77.3612 48.2128L69.2708 40.1224C69.054 39.9056 68.7704 39.7974 68.4865 39.7974Z" fill="#FF5C5C"/>
</svg>
