<svg width="256" height="256" viewBox="0 0 256 256" fill="none" xmlns="http://www.w3.org/2000/svg">
<g clip-path="url(#clip0_2_1008)">
<path d="M128 0C102.684 0 77.9365 7.50707 56.8871 21.5719C35.8376 35.6367 19.4315 55.6276 9.74348 79.0165C0.0554606 102.405 -2.47937 128.142 2.45954 152.972C7.39845 177.801 19.5893 200.609 37.4904 218.51C55.3915 236.411 78.1989 248.602 103.028 253.54C127.858 258.479 153.595 255.945 176.984 246.257C200.372 236.569 220.363 220.162 234.428 199.113C248.493 178.063 256 153.316 256 128C256 94.0523 242.514 61.495 218.51 37.4903C194.505 13.4857 161.948 0 128 0V0ZM125.205 39.232H152.768C153.332 39.2327 153.888 39.3637 154.393 39.6148C154.898 39.8659 155.337 40.2302 155.678 40.6794C156.019 41.1286 156.251 41.6505 156.357 42.2043C156.463 42.7581 156.439 43.3288 156.288 43.872L134.635 117.664L154.955 111.456L150.603 126.229L130.08 132.203L116.768 177.152H187.979C188.543 177.155 189.099 177.289 189.603 177.542C190.107 177.796 190.546 178.163 190.885 178.614C191.224 179.066 191.454 179.589 191.556 180.144C191.659 180.699 191.632 181.271 191.477 181.813L185.269 203.147C184.972 204.162 184.354 205.053 183.508 205.687C182.662 206.322 181.634 206.665 180.576 206.667H71.8187L90.1974 144.565L69.8667 150.752L74.3467 136.235L94.72 130.048L120.555 42.7947C120.838 41.7744 121.446 40.8744 122.288 40.2314C123.129 39.5884 124.157 39.2375 125.216 39.232H125.205Z" fill="#002950"/>
</g>
<defs>
<clipPath id="clip0_2_1008">
<rect width="256" height="256" fill="white"/>
</clipPath>
</defs>
</svg>
