<svg width="145" height="104" viewBox="0 0 145 104" fill="none" xmlns="http://www.w3.org/2000/svg">
<circle cx="77.3594" cy="52" r="52" fill="#FFF9E9"/>
<path d="M93.6663 51.9999C93.6663 61.1999 86.1997 68.6666 76.9997 68.6666C67.7997 68.6666 60.333 61.1999 60.333 51.9999C60.333 42.7999 67.7997 35.3333 76.9997 35.3333C86.1997 35.3333 93.6663 42.7999 93.6663 51.9999Z" stroke="#EBB101" stroke-width="2.5" stroke-linecap="round" stroke-linejoin="round"/>
<path d="M83.1838 57.2999L78.0171 54.2166C77.1171 53.6833 76.3838 52.3999 76.3838 51.3499V44.5166" stroke="#EBB101" stroke-width="2.5" stroke-linecap="round" stroke-linejoin="round"/>
<rect x="0.399414" y="10.043" width="8.32" height="8.32" transform="rotate(-45 0.399414 10.043)" fill="#3861FB"/>
<rect x="5.59863" y="68.283" width="4.16" height="4.16" transform="rotate(-45 5.59863 68.283)" fill="#A6B9FF"/>
<path fill-rule="evenodd" clip-rule="evenodd" d="M141.066 45.9187C141.103 44.5254 140.536 43.136 139.292 42.2974C138.811 41.9727 138.241 41.8545 137.679 41.7562C139.961 41.6779 140.753 39.2892 141.071 37.4399C140.961 39.0985 141.828 40.8899 143.6 41.0552C141.836 42.093 141.23 43.9973 141.066 45.9187Z" fill="white" stroke="#EBB101" stroke-width="1.31217" stroke-miterlimit="1.5" stroke-linecap="round" stroke-linejoin="round"/>
</svg>
