<svg width="85" height="34" viewBox="0 0 85 34" fill="none" xmlns="http://www.w3.org/2000/svg">
<path fill-rule="evenodd" clip-rule="evenodd" d="M65.1015 15.316C62.9498 16.8404 60.7015 18 58.5 18C54.3732 18 51.8847 16.0387 49.7393 14.2719C49.6867 14.2286 49.6343 14.1855 49.5822 14.1425C47.486 12.4148 45.7694 11 43 11C41.8221 11 40.7011 11.718 39.4596 13.154C38.4579 14.3126 37.506 15.7823 36.4683 17.3846C36.2214 17.7659 35.9696 18.1547 35.711 18.5487C34.3973 20.5506 32.9301 22.6492 31.1522 24.2443C29.3539 25.8578 27.1887 27 24.5 27C19.5938 27 17.525 26.0876 15.9631 25.0937C15.7295 24.945 15.5276 24.8098 15.342 24.6855C14.9059 24.3935 14.5604 24.1622 14.1077 23.9599C13.5223 23.6983 12.759 23.5 11.5 23.5C10.5149 23.5 9.81099 23.9415 9.16913 24.7584C8.50632 25.602 7.99013 26.7435 7.39977 28.049C7.38278 28.0866 7.36573 28.1243 7.34861 28.1622C6.76557 29.451 6.10306 30.897 5.16068 32.0067C4.17659 33.1655 2.85255 34 1 34C0.447715 34 0 33.5523 0 33C0 32.4477 0.447715 32 1 32C2.14745 32 2.94841 31.522 3.6362 30.7121C4.36569 29.853 4.92193 28.674 5.52639 27.3378C5.5579 27.2682 5.58956 27.198 5.62142 27.1275C6.17159 25.9087 6.77885 24.5634 7.59649 23.5228C8.50151 22.371 9.73512 21.5 11.5 21.5C12.991 21.5 14.0402 21.7392 14.9236 22.1339C15.5433 22.4108 16.0918 22.7782 16.5777 23.1037C16.7374 23.2107 16.8904 23.3131 17.0369 23.4063C18.225 24.1624 19.9062 25 24.5 25C26.5613 25 28.2711 24.1422 29.8166 22.7557C31.3824 21.3508 32.7277 19.4494 34.039 17.4513C34.2774 17.088 34.5156 16.72 34.7541 16.3514C35.7964 14.7406 36.8451 13.1201 37.9467 11.846C39.2989 10.282 40.9279 9 43 9C46.5004 9 48.7267 10.8403 50.7343 12.4999C50.8269 12.5764 50.919 12.6525 51.0107 12.7281C53.1153 14.4613 55.1268 16 58.5 16C60.0485 16 61.8627 15.1596 63.9453 13.684C65.9452 12.2672 68.0359 10.3822 70.2008 8.43049L70.393 8.25723C72.6018 6.26617 74.8851 4.21998 77.1284 2.67622C79.3533 1.14511 81.6881 0 84 0C84.5523 0 85 0.447715 85 1C85 1.55228 84.5523 2 84 2C82.3119 2 80.3967 2.85489 78.2622 4.32378C76.1461 5.78002 73.9607 7.73383 71.732 9.74277C71.6536 9.81344 71.5752 9.88418 71.4967 9.95497C69.3679 11.8745 67.1996 13.8295 65.1015 15.316Z" fill="#F89D30"/>
</svg>
