<svg width="256" height="256" viewBox="0 0 256 256" fill="none" xmlns="http://www.w3.org/2000/svg">
<path fill-rule="evenodd" clip-rule="evenodd" d="M128 256C57.304 256 0 198.696 0 128C0 57.304 57.304 0 128 0C198.696 0 256 57.304 256 128C256 198.696 198.696 256 128 256ZM143.376 110.344V91.416H186.688V62.552H68.76V91.416H112.072V110.336C76.872 111.952 50.4 118.928 50.4 127.28C50.4 135.632 76.872 142.6 112.072 144.224V204.88H143.376V144.208C178.52 142.592 204.928 135.624 204.928 127.28C204.928 118.936 178.52 111.968 143.376 110.344ZM143.376 139.064V139.048C142.496 139.112 137.96 139.384 127.84 139.384C119.76 139.384 114.072 139.144 112.072 139.048V139.072C80.968 137.704 57.752 132.288 57.752 125.808C57.752 119.336 80.968 113.92 112.072 112.528V133.68C114.104 133.824 119.928 134.168 127.976 134.168C137.632 134.168 142.472 133.768 143.376 133.688V112.544C174.416 113.928 197.576 119.344 197.576 125.808C197.576 132.288 174.416 137.688 143.376 139.064Z" fill="#06C270"/>
</svg>
