<svg width="23" height="22" viewBox="0 0 23 22" fill="none" xmlns="http://www.w3.org/2000/svg">
<path d="M21.4969 9.08775L13.6306 1.56341C12.5294 0.510112 10.7392 0.510112 9.63807 1.56341L1.76607 9.08775C0.664891 10.141 0.664891 11.8533 1.76607 12.9066L9.63242 20.431C10.7336 21.4843 12.5238 21.4843 13.6249 20.431L21.4969 12.9121C22.5981 11.8533 22.5981 10.1465 21.4969 9.08775ZM13.8508 13.5602C13.5176 13.8033 13.0941 13.9546 12.5859 14.0085V15.0727H11.6259V14.0356H10.6658V15.0727H9.70583V14.0356H8.76842V7.71576H9.70583V6.92173H10.6658V7.71576H11.6259V6.92173H12.5859V7.75897C12.9981 7.82379 13.3426 7.95343 13.6136 8.15869C14.0089 8.45037 14.2066 8.86088 14.2066 9.37943C14.2066 9.69815 14.1219 9.97899 13.9525 10.2328C13.783 10.4867 13.5628 10.665 13.2805 10.7622C13.6701 10.8378 13.9694 11.0107 14.1783 11.2916C14.3873 11.5725 14.4946 11.9073 14.4946 12.2963C14.5002 12.8256 14.28 13.2469 13.8508 13.5602Z" fill="white"/>
</svg>
